<?xml version="1.0" standalone="no"?>
<!DOCTYPE svg PUBLIC "-//W3C//DTD SVG 20010904//EN"
 "http://www.w3.org/TR/2001/REC-SVG-20010904/DTD/svg10.dtd">
<svg version="1.0" xmlns="http://www.w3.org/2000/svg"
 width="900.000000pt" height="900.000000pt" viewBox="0 0 900.000000 900.000000"
 preserveAspectRatio="xMidYMid meet">

<g transform="translate(0.000000,900.000000) scale(0.100000,-0.100000)"
fill="#000000" stroke="none">
<path d="M0 4500 l0 -4500 4500 0 4500 0 0 4500 0 4500 -4500 0 -4500 0 0
-4500z m4766 399 c30 -61 53 -113 50 -116 -3 -3 -20 0 -37 6 -18 6 -36 8 -40
4 -4 -5 -84 -226 -177 -493 -94 -267 -173 -493 -177 -502 -4 -11 -18 -18 -36
-18 -16 0 -29 2 -29 4 0 2 61 181 136 397 242 703 246 714 228 732 -3 3 -16 1
-28 -4 -17 -8 -40 -65 -116 -287 -51 -152 -138 -403 -191 -557 l-97 -280 -33
0 -33 0 -66 202 c-36 111 -67 204 -70 207 -3 3 -35 -88 -71 -202 l-65 -207
-96 -3 -95 -3 -11 28 c-15 40 -202 627 -202 636 0 4 45 7 99 7 86 0 100 -2
105 -17 3 -10 26 -99 52 -198 26 -99 49 -185 53 -192 4 -7 36 81 72 195 l66
207 94 3 95 3 64 -201 c35 -110 66 -200 69 -200 10 0 272 800 266 810 -3 6
-10 10 -15 10 -5 0 -21 5 -37 11 -27 11 -25 12 87 69 63 33 118 59 122 59 4 1
33 -49 64 -110z m-2378 -76 l3 -153 95 0 95 0 -3 -37 -3 -38 -140 0 -140 0 -3
180 c-1 98 0 185 3 193 3 9 19 12 47 10 l43 -3 3 -152z m662 92 c0 -33 2 -35
35 -35 33 0 35 -2 35 -35 0 -33 -2 -35 -35 -35 l-35 0 0 -64 c0 -69 11 -88 50
-84 17 2 25 -4 32 -25 6 -16 7 -31 3 -35 -4 -4 -34 -7 -67 -7 -53 0 -62 3 -84
28 -21 25 -24 38 -24 108 0 78 0 79 -25 79 -22 0 -25 4 -25 35 0 31 3 35 25
35 22 0 25 4 25 35 0 35 0 35 45 35 45 0 45 0 45 -35z m-200 -63 c24 -24 41
-52 45 -75 12 -64 8 -67 -112 -67 l-108 -1 28 -24 c32 -29 60 -31 102 -9 29
15 31 14 53 -11 26 -31 24 -37 -22 -59 -77 -37 -192 -5 -228 64 -33 63 -20
138 34 186 31 29 43 32 112 33 55 1 61 -1 96 -37z m534 28 c30 -11 32 -22 11
-54 -15 -22 -18 -23 -55 -10 -28 10 -47 11 -66 4 -40 -16 -24 -32 51 -51 39
-9 74 -24 82 -35 16 -22 17 -68 2 -96 -23 -43 -114 -60 -205 -37 -46 12 -51
22 -33 63 11 23 12 24 46 9 46 -19 107 -14 111 9 3 14 -7 18 -47 24 -93 12
-137 60 -112 122 18 43 57 61 128 62 34 0 73 -4 87 -10z m-1539 -94 c69 -18
148 -60 196 -103 l40 -36 -62 -63 -62 -63 -39 31 c-57 45 -127 68 -208 68
-132 0 -242 -66 -297 -178 -25 -50 -28 -68 -28 -152 0 -90 2 -98 36 -160 42
-76 109 -133 183 -155 57 -17 155 -19 208 -5 61 17 130 72 160 126 48 85 50
84 -122 84 l-150 0 0 80 0 80 243 -2 242 -3 3 -74 c11 -270 -167 -462 -443
-478 -162 -9 -298 40 -405 147 -205 205 -196 548 20 744 44 40 161 102 218
115 58 14 211 12 267 -3z m3314 -267 c75 -130 143 -246 151 -258 15 -22 18
-19 95 115 44 76 112 192 150 258 l70 121 93 3 92 3 0 -491 0 -491 -90 3 -91
3 0 300 c0 165 3 308 6 318 4 9 3 17 -2 17 -5 0 -63 -96 -129 -212 l-119 -213
-60 -3 -60 -2 -118 207 c-64 115 -121 213 -125 220 -4 6 -5 -135 -3 -313 l3
-324 -91 0 -91 0 0 490 0 491 91 -3 92 -3 136 -236z m-1874 -59 c72 -35 137
-104 166 -176 18 -46 23 -79 24 -149 0 -79 -4 -98 -29 -153 -123 -267 -522
-269 -644 -3 -64 138 -31 326 74 422 77 70 138 90 264 86 75 -3 105 -8 145
-27z m3167 3 c181 -82 253 -307 158 -499 -53 -108 -152 -171 -284 -181 -215
-16 -375 132 -378 351 -1 164 88 294 235 342 63 21 210 13 269 -13z m1285 6
c115 -44 184 -146 199 -297 l7 -72 -252 0 c-246 0 -251 0 -251 -20 0 -33 27
-77 66 -106 27 -21 50 -29 93 -32 66 -5 108 12 154 61 l27 30 63 -28 c34 -15
66 -31 71 -36 13 -11 -29 -74 -74 -109 -178 -141 -443 -86 -548 115 -25 45
-27 60 -27 160 0 97 3 115 24 155 52 97 112 152 201 183 67 24 177 21 247 -4z
m-4994 -10 c12 -7 23 -12 24 -13 1 -1 -9 -37 -21 -81 -20 -68 -26 -79 -42 -75
-48 12 -123 5 -150 -16 -67 -49 -69 -56 -74 -282 l-5 -207 -92 -3 -93 -3 0
336 0 336 88 -3 87 -3 -1 -37 c-1 -21 1 -38 5 -38 4 0 20 14 37 31 16 17 47
40 69 50 45 21 135 25 168 8z m4451 -3 l34 -14 -22 -74 -23 -73 -60 3 c-79 5
-125 -16 -158 -72 -31 -54 -33 -70 -34 -274 l-1 -173 -87 3 -88 3 0 330 0 330
83 3 82 3 0 -46 c0 -25 3 -45 6 -45 3 0 17 14 32 31 33 40 115 79 165 79 21 0
53 -6 71 -14z"/>
<path d="M2697 4802 c-10 -10 -17 -22 -17 -25 0 -4 29 -7 65 -7 68 0 77 6 47
33 -25 22 -75 21 -95 -1z"/>
<path d="M3085 4321 c-73 -18 -122 -77 -132 -159 -13 -114 64 -212 167 -212
147 0 225 159 145 296 -35 59 -113 91 -180 75z"/>
<path d="M6245 4318 c-71 -25 -117 -94 -118 -177 0 -72 24 -125 77 -163 37
-27 47 -29 101 -26 105 6 165 73 165 182 0 92 -30 143 -105 177 -45 21 -76 22
-120 7z"/>
<path d="M7553 4339 c-40 -12 -103 -72 -103 -99 0 -19 8 -20 155 -20 145 0
155 1 155 19 0 29 -39 72 -84 92 -45 20 -74 22 -123 8z"/>
</g>
</svg>
